<svg width="40" height="40" viewBox="0 0 40 40" fill="none" xmlns="http://www.w3.org/2000/svg">
<rect width="40" height="40" rx="20" fill="url(#paint0_linear_1520_9810)"/>
<g clip-path="url(#clip0_1520_9810)">
<path d="M24 12H16C13.7909 12 12 13.7909 12 16V24C12 26.2091 13.7909 28 16 28H24C26.2091 28 28 26.2091 28 24V16C28 13.7909 26.2091 12 24 12Z" stroke="white" stroke-width="1.5" stroke-linecap="round" stroke-linejoin="round"/>
<path d="M20 23C21.6569 23 23 21.6569 23 20C23 18.3431 21.6569 17 20 17C18.3431 17 17 18.3431 17 20C17 21.6569 18.3431 23 20 23Z" stroke="white" stroke-width="1.5" stroke-linecap="round" stroke-linejoin="round"/>
<path d="M24.5 15.5V15.501" stroke="white" stroke-width="1.5" stroke-linecap="round" stroke-linejoin="round"/>
</g>
<defs>
<linearGradient id="paint0_linear_1520_9810" x1="20" y1="40" x2="20" y2="0" gradientUnits="userSpaceOnUse">
<stop stop-color="#7F3FFC"/>
<stop offset="1" stop-color="#7F3FFC" stop-opacity="0.6"/>
</linearGradient>
<clipPath id="clip0_1520_9810">
<rect width="24" height="24" fill="white" transform="translate(8 8)"/>
</clipPath>
</defs>
</svg>
