<svg width="40" height="40" viewBox="0 0 40 40" fill="none" xmlns="http://www.w3.org/2000/svg">
<rect width="40" height="40" rx="20" fill="url(#paint0_linear_1520_9789)"/>
<path d="M30 12.0092C29.0311 12.4268 28.0272 12.7581 27 12.9992C26.4404 12.4311 25.7157 12.054 24.9293 11.9217C24.1429 11.7893 23.3347 11.9085 22.62 12.2622C21.8489 12.5353 21.1821 13.042 20.7125 13.7118C20.2429 14.3817 19.9938 15.1812 20 15.9992V16.9992C18.4391 17.0502 16.8901 16.7111 15.4933 16.0127C14.0964 15.3143 12.8958 14.2785 12 12.9992C12 12.9992 7.818 20.4322 16 23.9992C14.274 25.3069 12.1654 26.0098 10 25.9992C13.0174 27.7983 16.6197 28.3429 20.034 27.5162C21.8713 27.0003 23.5428 26.0153 24.8842 24.6579C26.2256 23.3005 27.1908 21.6175 27.685 19.7742C28.0228 18.5521 28.191 17.2892 28.185 16.0212C28.185 15.7722 29.695 13.2492 30.003 12.0082L30 12.0092Z" stroke="white" stroke-width="1.5" stroke-linecap="round" stroke-linejoin="round"/>
<defs>
<linearGradient id="paint0_linear_1520_9789" x1="20" y1="40" x2="20" y2="0" gradientUnits="userSpaceOnUse">
<stop stop-color="#7F3FFC"/>
<stop offset="1" stop-color="#7F3FFC" stop-opacity="0.6"/>
</linearGradient>
</defs>
</svg>
