<svg width="20" height="21" viewBox="0 0 20 21" fill="none" xmlns="http://www.w3.org/2000/svg">
<g clip-path="url(#clip0_2965_21762)">
<path d="M10 3C11.9466 4.72215 14.4871 5.61881 17.0834 5.5C17.4614 6.78585 17.577 8.13456 17.4235 9.46598C17.2699 10.7974 16.8503 12.0844 16.1895 13.2504C15.5288 14.4165 14.6404 15.4378 13.5771 16.2537C12.5138 17.0696 11.2973 17.6635 10 18C8.7027 17.6635 7.48626 17.0696 6.42298 16.2537C5.3597 15.4378 4.47128 14.4165 3.81052 13.2504C3.14976 12.0844 2.73014 10.7974 2.57659 9.46598C2.42304 8.13456 2.5387 6.78585 2.91669 5.5C5.51296 5.61881 8.0535 4.72215 10 3" stroke="#1A1C21" stroke-width="1.5" stroke-linecap="round" stroke-linejoin="round"/>
<path d="M10.0003 10.4997C10.4606 10.4997 10.8337 10.1266 10.8337 9.66634C10.8337 9.2061 10.4606 8.83301 10.0003 8.83301C9.54009 8.83301 9.16699 9.2061 9.16699 9.66634C9.16699 10.1266 9.54009 10.4997 10.0003 10.4997Z" stroke="#1A1C21" stroke-width="1.5" stroke-linecap="round" stroke-linejoin="round"/>
<path d="M10 10.5V12.5833" stroke="#1A1C21" stroke-width="1.5" stroke-linecap="round" stroke-linejoin="round"/>
</g>
<defs>
<clipPath id="clip0_2965_21762">
<rect width="20" height="20" fill="white" transform="translate(0 0.5)"/>
</clipPath>
</defs>
</svg>
